<?xml version="1.0" encoding="utf-8"?>
<!-- Generator: Adobe Illustrator 17.0.1, SVG Export Plug-In . SVG Version: 6.00 Build 0)  -->
<!DOCTYPE svg PUBLIC "-//W3C//DTD SVG 1.1//EN" "http://www.w3.org/Graphics/SVG/1.1/DTD/svg11.dtd">
<svg version="1.1" id="Layer_1" xmlns="http://www.w3.org/2000/svg" xmlns:xlink="http://www.w3.org/1999/xlink" x="0px" y="0px"
	 width="482px" height="60px" viewBox="0 0 482 60" enable-background="new 0 0 482 60" xml:space="preserve">
<g>
	<path fill="#FFD77A" d="M8.971,26.409h6.9c2.733,0,4.632-0.972,4.632-3.705c0-2.916-2.041-3.889-4.632-3.889h-6.9V26.409z
		 M8.971,13.258h6.668c1.483,0,3.518-0.787,3.518-3.149c0-2.408-1.713-3.195-3.518-3.195H8.971V13.258z M0.358,0.246h15.465
		c5.697-0.092,11.948,1.39,11.948,8.29c0,2.962-1.759,5.37-4.352,6.666c3.52,1.019,5.694,4.076,5.694,7.827
		c0,7.871-5.787,10.277-12.871,10.277H0.358V0.246z"/>
	<polygon fill="#FFD77A" points="46.897,20.991 46.897,33.309 38.285,33.309 38.285,20.991 26.246,0.247 36.016,0.247 42.59,13.674 
		49.165,0.247 58.937,0.247 	"/>
	<path fill="#FFD77A" d="M89.547,19.649c0,9.584-4.4,14.355-14.403,14.355s-14.401-4.771-14.401-14.355V0.247h8.612v19.912
		c0,4.259,1.573,6.436,5.788,6.436c4.215,0,5.788-2.177,5.788-6.436V0.247h8.615v19.402H89.547z"/>
	<rect x="103.26" y="0.216" fill="#FFFFFF" width="7.873" height="33.126"/>
	<path fill="#FFFFFF" d="M179.73,15.411c-0.74-0.789-1.944-0.972-3.194-0.972c-3.15,0-5.604,2.962-5.604,6.018v0.832L179.73,15.411z
		 M173.061,25.599c0.833,1.204,2.502,1.712,3.892,1.712c2.546,0,4.956-1.204,6.899-2.778l3.799,5.559
		c-3.15,2.175-6.718,3.704-10.838,3.704c-7.596,0-12.83-6.623-12.83-12.365c0-7.086,5.649-13.013,12.504-13.013
		c5.001,0,9.678,2.871,11.904,7.317L173.061,25.599z"/>
	<path fill="#FFFFFF" d="M232.798,15.411c-0.739-0.789-1.944-0.972-3.195-0.972c-3.149,0-5.603,2.962-5.603,6.018v0.832
		L232.798,15.411z M226.131,25.599c0.833,1.204,2.5,1.712,3.889,1.712c2.549,0,4.956-1.204,6.903-2.778l3.795,5.559
		c-3.149,2.175-6.713,3.704-10.836,3.704c-7.595,0-12.83-6.623-12.83-12.365c0-7.086,5.65-13.013,12.504-13.013
		c5.002,0,9.68,2.871,11.903,7.317L226.131,25.599z"/>
	<path fill="#FFFFFF" d="M308.84,15.411c-0.742-0.789-1.948-0.972-3.196-0.972c-3.15,0-5.608,2.962-5.608,6.018v0.832L308.84,15.411
		z M302.172,25.599c0.83,1.204,2.501,1.712,3.887,1.712c2.551,0,4.956-1.204,6.898-2.778l3.8,5.559
		c-3.149,2.175-6.715,3.704-10.84,3.704c-7.593,0-12.827-6.623-12.827-12.365c0-7.086,5.649-13.013,12.503-13.013
		c5.003,0,9.682,2.871,11.905,7.317L302.172,25.599z"/>
	<path fill="#FFFFFF" d="M325.449,12.029h0.092c1.856-2.781,4.216-3.612,6.209-3.612c6.531,0,8.706,4.167,8.706,10.096v14.829
		h-7.226V19.023c0-2.779-1.433-4.121-3.613-4.121c-2.174,0-3.609,1.342-3.609,4.121v14.319h-7.225V9.157l6.666-0.136L325.449,12.029
		L325.449,12.029z"/>
	<path fill="#FFFFFF" d="M120.512,12.029h0.094c1.852-2.781,4.214-3.612,6.205-3.612c6.53,0,8.706,4.167,8.706,10.096v14.829h-7.225
		V19.023c0-2.779-1.434-4.121-3.613-4.121c-2.174,0-3.61,1.342-3.61,4.121v14.319h-7.225V9.157l6.669-0.136L120.512,12.029
		L120.512,12.029z"/>
	<path fill="#FFFFFF" d="M249.426,12.029h0.094c1.855-2.781,4.214-3.612,6.207-3.612c6.53,0,8.704,4.167,8.704,10.096v14.829h-7.223
		V19.023c0-2.779-1.435-4.121-3.613-4.121c-2.176,0-3.611,1.342-3.611,4.121v14.319h-7.225V9.157l6.666-0.136L249.426,12.029
		L249.426,12.029z"/>
	<path fill="#FFFFFF" d="M385.999,9.669c-1.806-1.576-3.196-2.409-5.651-2.409c-1.39,0-3.469,0.833-3.469,2.502
		c0,5.048,14.217,1.76,14.217,13.43c0,7.134-5.557,10.607-12.179,10.607c-3.939,0-8.013-1.16-11.027-3.751l4.728-6.022
		c1.482,1.715,3.611,2.549,5.976,2.549c1.619,0,4.166-0.788,4.166-2.827c0-4.954-14.215-1.989-14.215-13.384
		c0-6.297,5.833-9.817,11.574-9.817c3.66,0,7.365,1.344,10.19,3.658L385.999,9.669z"/>
	<path fill="#FFFFFF" d="M388.834,15.242l-0.027-6.02h3.827v-5.57l7.223-1.932v7.502h4.123v6.02h-4.123v8.338
		c0,2.361,1.804,3.009,3.844,3.009c0.644,0,1.573-0.138,1.898-0.277l-0.03,7.132c-0.323,0.044-2.794,0.093-3.167,0.093
		c-6.388,0-9.767-3.057-9.767-9.402v-8.893L388.834,15.242L388.834,15.242z"/>
	<path fill="#FFFFFF" d="M340.931,15.242l-0.027-6.02h3.823v-5.57l7.226-1.932v7.502h4.123v6.02h-4.123v8.338
		c0,2.361,1.806,3.009,3.845,3.009c0.642,0,1.573-0.138,1.896-0.277l-0.03,7.132c-0.325,0.044-2.794,0.093-3.165,0.093
		c-6.393,0-9.772-3.057-9.772-9.402v-8.893L340.931,15.242L340.931,15.242z"/>
	<path fill="#FFFFFF" d="M420.783,9.02h7.225v24.324h-6.67v-3.53h-0.09c-1.39,3.149-4.218,3.982-6.209,3.982
		c-6.528,0-8.704-4.166-8.704-10.098V9.02h7.226v14.168c0,2.782,1.435,4.123,3.609,4.123c2.176,0,3.613-1.341,3.613-4.123
		L420.783,9.02L420.783,9.02z"/>
	<path fill="#FFFFFF" d="M278.628,27.311c3.241,0,5.788-2.871,5.788-6.204c0-3.334-2.548-6.204-5.788-6.204
		c-3.244,0-5.791,2.87-5.791,6.204C272.836,24.44,275.383,27.311,278.628,27.311 M284.136,0.217h7.426l0.029,33.066l-6.99,0.059
		v-2.972h-0.09c-1.345,2.498-3.986,3.427-6.766,3.427c-6.807,0-12.13-5.559-12.13-12.367c0-6.899,5.046-13.013,12.13-13.013
		c2.27,0,4.82,0.831,6.391,2.408V0.217z"/>
	<path fill="#FFFFFF" d="M149.854,27.311c3.243,0,5.789-2.871,5.789-6.204c0-3.334-2.547-6.204-5.789-6.204
		c-3.243,0-5.788,2.87-5.788,6.204C144.067,24.44,146.612,27.311,149.854,27.311 M155.366,0.217h7.423l0.029,33.066l-6.989,0.059
		v-2.972h-0.092c-1.342,2.498-3.982,3.427-6.761,3.427c-6.808,0-12.135-5.559-12.135-12.367c0-6.899,5.048-13.013,12.135-13.013
		c2.269,0,4.814,0.831,6.39,2.408V0.217L155.366,0.217z"/>
	<path fill="#FFFFFF" d="M202.787,14.75c-3.241,0-5.788,2.871-5.788,6.207c0,3.334,2.548,6.204,5.788,6.204
		c3.243,0,5.788-2.87,5.788-6.204C208.574,17.622,206.029,14.75,202.787,14.75 M197.274,42.523h-7.425L189.823,8.78l6.991-0.059
		v2.974h0.09c1.344-2.503,3.984-3.43,6.762-3.43c6.807,0,12.134,5.559,12.134,12.368c0,6.898-5.046,13.012-12.134,13.012
		c-2.269,0-4.817-0.833-6.392-2.409L197.274,42.523L197.274,42.523z"/>
	<path fill="#FFFFFF" d="M442.081,27.311c3.245,0,5.788-2.871,5.788-6.204c0-3.334-2.544-6.204-5.788-6.204
		c-3.241,0-5.788,2.87-5.788,6.204C436.292,24.44,438.84,27.311,442.081,27.311 M447.595,0.217h7.425l0.027,33.066l-6.989,0.059
		v-2.972h-0.094c-1.347,2.498-3.986,3.427-6.76,3.427c-6.811,0-12.137-5.559-12.137-12.367c0-6.899,5.049-13.013,12.137-13.013
		c2.267,0,4.816,0.831,6.391,2.408L447.595,0.217L447.595,0.217z"/>
	<polygon fill="#FFFFFF" points="469.05,23.947 474.954,9.371 482.101,11.182 467.667,43.479 459.904,42.716 465.19,32.095 
		455.856,11.135 463.096,9.371 	"/>
	<path fill="#FFFFFF" d="M246.479,49.942c0,2.517,0.476,4.479,1.431,5.884c0.954,1.404,2.276,2.109,3.963,2.109
		s3.009-0.705,3.964-2.109c0.954-1.405,1.431-3.366,1.431-5.884c0-2.527-0.477-4.492-1.431-5.896
		c-0.956-1.405-2.278-2.107-3.964-2.107c-1.687,0-3.009,0.702-3.963,2.107C246.954,45.451,246.479,47.415,246.479,49.942
		 M244.343,49.942c0-2.989,0.682-5.372,2.051-7.15c1.366-1.778,3.192-2.667,5.478-2.667c2.286,0,4.114,0.886,5.478,2.654
		c1.368,1.77,2.051,4.158,2.051,7.164c0,2.997-0.682,5.387-2.051,7.168c-1.364,1.783-3.192,2.672-5.478,2.672
		c-2.278,0-4.103-0.89-5.473-2.672C245.029,55.329,244.343,52.94,244.343,49.942"/>
	<polygon fill="#FFFFFF" points="263.165,59.464 263.165,40.434 266.157,40.434 274.894,55.273 274.894,40.434 276.874,40.434 
		276.874,59.464 275.242,59.464 265.131,42.619 265.131,59.464 	"/>
	<polygon fill="#FFFFFF" points="282.102,59.464 282.102,40.434 284.261,40.434 284.261,57.652 292.753,57.652 292.753,59.464 	"/>
	<rect x="295.811" y="40.434" fill="#FFFFFF" width="2.13" height="19.026"/>
	<polygon fill="#FFFFFF" points="303.187,59.464 303.187,40.434 306.179,40.434 314.916,55.273 314.916,40.434 316.894,40.434 
		316.894,59.464 315.261,59.464 305.149,42.619 305.149,59.464 	"/>
	<polygon fill="#FFFFFF" points="321.993,59.464 321.993,40.434 333.222,40.434 333.222,42.234 324.088,42.234 324.088,48.594 
		330.561,48.594 330.561,50.352 324.088,50.352 324.088,57.652 333.67,57.652 333.67,59.464 	"/>
	<path fill="#FFFFFF" d="M357.605,53.757c-0.461,2.006-1.251,3.512-2.371,4.516c-1.114,1.008-2.561,1.511-4.335,1.511
		c-2.337,0-4.142-0.855-5.415-2.562c-1.273-1.71-1.908-4.135-1.908-7.278c0-3.058,0.641-5.459,1.919-7.201
		c1.28-1.743,3.028-2.614,5.237-2.614c1.764,0,3.196,0.477,4.292,1.432c1.096,0.955,1.84,2.37,2.234,4.246l-1.914,0.5
		c-0.299-1.421-0.83-2.509-1.59-3.262c-0.767-0.753-1.71-1.132-2.828-1.132c-1.668,0-2.96,0.701-3.861,2.107
		c-0.903,1.406-1.354,3.406-1.354,5.999c0,2.537,0.457,4.495,1.373,5.874c0.916,1.379,2.214,2.067,3.894,2.067
		c1.242,0,2.272-0.4,3.088-1.203c0.819-0.798,1.358-1.939,1.613-3.422L357.605,53.757z"/>
	<path fill="#FFFFFF" d="M361.6,49.942c0,2.517,0.479,4.479,1.433,5.884c0.958,1.404,2.276,2.109,3.964,2.109
		c1.687,0,3.007-0.705,3.966-2.109c0.954-1.405,1.431-3.366,1.431-5.884c0-2.527-0.477-4.492-1.431-5.896
		c-0.96-1.405-2.279-2.107-3.966-2.107c-1.689,0-3.007,0.702-3.964,2.107C362.079,45.451,361.6,47.415,361.6,49.942 M359.469,49.942
		c0-2.989,0.682-5.372,2.051-7.15c1.364-1.778,3.192-2.667,5.478-2.667c2.288,0,4.114,0.886,5.478,2.654
		c1.367,1.77,2.053,4.158,2.053,7.164c0,2.997-0.686,5.387-2.053,7.168c-1.364,1.783-3.19,2.672-5.478,2.672
		c-2.278,0-4.103-0.89-5.473-2.672C360.154,55.329,359.469,52.94,359.469,49.942"/>
	<path fill="#FFFFFF" d="M378.24,40.434h2.067v12.269c0,0.856,0.04,1.503,0.117,1.935c0.074,0.432,0.206,0.82,0.383,1.162
		c0.353,0.684,0.899,1.215,1.647,1.595c0.744,0.374,1.617,0.563,2.62,0.563c1.019,0,1.9-0.189,2.644-0.563
		c0.744-0.38,1.294-0.911,1.643-1.595c0.182-0.36,0.312-0.763,0.387-1.213c0.077-0.45,0.117-1.192,0.117-2.229V40.435h2.081v12.604
		c0,2.202-0.585,3.876-1.751,5.021c-1.171,1.148-2.877,1.724-5.122,1.724c-2.252,0-3.955-0.566-5.105-1.702
		c-1.154-1.134-1.728-2.816-1.728-5.043V40.434z"/>
	<path fill="#FFFFFF" d="M402.327,42.208h-3.262v6.86h3.188c1.961,0,3.372-0.27,4.244-0.81c0.869-0.539,1.3-1.409,1.3-2.608
		c0-1.276-0.383-2.169-1.158-2.679C405.863,42.463,404.424,42.208,402.327,42.208 M396.995,59.464V40.434h5.332
		c2.665,0,4.594,0.401,5.802,1.202c1.201,0.8,1.804,2.074,1.804,3.822c0,1.242-0.325,2.27-0.983,3.084
		c-0.655,0.814-1.645,1.407-2.963,1.784l4.472,9.137h-2.315l-4.187-8.636h-4.892v8.636H396.995z"/>
	<path fill="#FFFFFF" d="M412.542,54.696l1.987-0.657c0.346,1.219,0.929,2.177,1.764,2.873c0.83,0.698,1.787,1.047,2.875,1.047
		c1.208,0,2.173-0.302,2.891-0.905c0.72-0.605,1.082-1.406,1.082-2.408c0-0.592-0.112-1.103-0.321-1.541
		c-0.216-0.438-0.538-0.802-0.967-1.093c-0.616-0.41-1.683-0.891-3.197-1.441c-0.544-0.196-0.947-0.346-1.22-0.448
		c-1.604-0.625-2.731-1.315-3.386-2.067c-0.655-0.754-0.984-1.706-0.984-2.853c0-1.534,0.51-2.763,1.521-3.689
		c1.019-0.925,2.367-1.386,4.057-1.386c1.473,0,2.722,0.398,3.742,1.195c1.022,0.795,1.759,1.947,2.202,3.453l-1.9,0.556
		c-0.308-1.123-0.825-1.977-1.554-2.563c-0.729-0.589-1.632-0.88-2.713-0.88c-1.018,0-1.829,0.279-2.434,0.841
		c-0.605,0.559-0.903,1.317-0.903,2.268c0,0.444,0.1,0.856,0.299,1.233c0.206,0.378,0.522,0.736,0.945,1.078
		c0.419,0.325,1.394,0.766,2.918,1.322c0.488,0.172,0.866,0.309,1.129,0.412c1.811,0.685,3.056,1.435,3.753,2.248
		c0.693,0.816,1.041,1.889,1.041,3.224c0,1.585-0.54,2.859-1.617,3.822c-1.073,0.965-2.499,1.446-4.281,1.446
		c-1.705,0-3.122-0.43-4.25-1.284C413.889,57.641,413.06,56.375,412.542,54.696"/>
	<polygon fill="#FFFFFF" points="428.935,59.464 428.935,40.434 440.162,40.434 440.162,42.234 431.027,42.234 431.027,48.594 
		437.503,48.594 437.503,50.352 431.027,50.352 431.027,57.652 440.615,57.652 440.615,59.464 	"/>
	<path fill="#FFFFFF" d="M442.296,54.696l1.989-0.657c0.342,1.219,0.929,2.177,1.76,2.873c0.831,0.698,1.789,1.047,2.879,1.047
		c1.207,0,2.171-0.302,2.891-0.905c0.72-0.605,1.082-1.406,1.082-2.408c0-0.592-0.111-1.103-0.327-1.541
		c-0.213-0.438-0.535-0.802-0.96-1.093c-0.619-0.41-1.683-0.891-3.201-1.441c-0.54-0.196-0.945-0.346-1.222-0.448
		c-1.6-0.625-2.729-1.315-3.386-2.067c-0.654-0.754-0.98-1.706-0.98-2.853c0-1.534,0.51-2.763,1.521-3.689
		c1.016-0.925,2.367-1.386,4.054-1.386c1.475,0,2.72,0.398,3.745,1.195c1.022,0.795,1.759,1.947,2.202,3.453l-1.902,0.556
		c-0.306-1.123-0.825-1.977-1.553-2.563c-0.727-0.589-1.631-0.88-2.71-0.88c-1.018,0-1.831,0.279-2.434,0.841
		c-0.605,0.559-0.909,1.317-0.909,2.268c0,0.444,0.102,0.856,0.304,1.233c0.2,0.378,0.515,0.736,0.943,1.078
		c0.419,0.325,1.392,0.766,2.918,1.322c0.489,0.172,0.865,0.309,1.129,0.412c1.808,0.685,3.058,1.435,3.753,2.248
		c0.691,0.816,1.041,1.889,1.041,3.224c0,1.585-0.538,2.859-1.613,3.822c-1.077,0.965-2.504,1.446-4.286,1.446
		c-1.705,0-3.124-0.43-4.252-1.284C443.647,57.641,442.816,56.375,442.296,54.696"/>
</g>
</svg>
