<?xml version="1.0" encoding="utf-8"?>
<!-- Generator: Adobe Illustrator 16.0.0, SVG Export Plug-In . SVG Version: 6.00 Build 0)  -->
<!DOCTYPE svg PUBLIC "-//W3C//DTD SVG 1.1//EN" "http://www.w3.org/Graphics/SVG/1.1/DTD/svg11.dtd">
<svg version="1.1" id="Layer_1" xmlns="http://www.w3.org/2000/svg" xmlns:xlink="http://www.w3.org/1999/xlink" x="0px" y="0px"
	 width="390px" height="36px" viewBox="0 0 390 36" enable-background="new 0 0 390 36" xml:space="preserve">
<g>
	<g>
		<path fill="#272525" d="M18.409,24.743c0,0.049-0.012,0.091-0.037,0.128s-0.067,0.066-0.128,0.087
			c-0.061,0.021-0.142,0.04-0.243,0.055c-0.101,0.015-0.225,0.023-0.371,0.023c-0.159,0-0.287-0.008-0.384-0.023
			s-0.178-0.033-0.239-0.055c-0.061-0.021-0.104-0.051-0.128-0.087c-0.025-0.037-0.037-0.079-0.037-0.128v-5.256h-5.395v5.256
			c0,0.049-0.012,0.091-0.037,0.128c-0.024,0.037-0.067,0.066-0.128,0.087s-0.142,0.04-0.243,0.055
			c-0.101,0.015-0.228,0.023-0.38,0.023c-0.146,0-0.272-0.008-0.375-0.023c-0.104-0.015-0.187-0.033-0.247-0.055
			c-0.062-0.021-0.104-0.051-0.129-0.087c-0.024-0.037-0.036-0.079-0.036-0.128V13.368c0-0.05,0.012-0.091,0.036-0.128
			c0.025-0.037,0.067-0.066,0.129-0.087c0.061-0.021,0.143-0.039,0.247-0.055c0.104-0.015,0.229-0.022,0.375-0.022
			c0.152,0,0.279,0.007,0.38,0.022c0.101,0.016,0.182,0.033,0.243,0.055s0.104,0.051,0.128,0.087
			c0.025,0.037,0.037,0.079,0.037,0.128v4.744h5.395v-4.744c0-0.05,0.012-0.091,0.037-0.128c0.024-0.037,0.067-0.066,0.128-0.087
			c0.061-0.021,0.141-0.039,0.239-0.055c0.098-0.015,0.226-0.022,0.384-0.022c0.146,0,0.27,0.007,0.371,0.022
			c0.101,0.016,0.182,0.033,0.243,0.055c0.061,0.021,0.104,0.051,0.128,0.087c0.024,0.037,0.037,0.079,0.037,0.128V24.743z"/>
		<path fill="#272525" d="M28.443,24.743c0,0.049-0.012,0.091-0.037,0.128s-0.067,0.066-0.128,0.087
			c-0.061,0.021-0.142,0.04-0.243,0.055c-0.101,0.015-0.228,0.023-0.38,0.023c-0.146,0-0.272-0.008-0.375-0.023
			c-0.104-0.015-0.187-0.033-0.248-0.055c-0.062-0.021-0.104-0.051-0.129-0.087c-0.024-0.037-0.036-0.079-0.036-0.128V13.368
			c0-0.05,0.014-0.091,0.042-0.128c0.027-0.037,0.073-0.066,0.137-0.087c0.064-0.021,0.146-0.039,0.248-0.055
			c0.101-0.015,0.221-0.022,0.362-0.022c0.152,0,0.279,0.007,0.38,0.022c0.101,0.016,0.182,0.033,0.243,0.055
			c0.061,0.021,0.104,0.051,0.128,0.087c0.024,0.037,0.037,0.079,0.037,0.128V24.743z"/>
		<path fill="#272525" d="M45.824,14.741c0,0.117-0.006,0.22-0.019,0.307c-0.012,0.089-0.03,0.162-0.055,0.221
			c-0.024,0.057-0.055,0.099-0.091,0.123c-0.037,0.024-0.077,0.037-0.119,0.037c-0.073,0-0.195-0.059-0.367-0.174
			c-0.17-0.117-0.399-0.245-0.687-0.385c-0.287-0.14-0.63-0.268-1.03-0.384c-0.4-0.116-0.875-0.174-1.424-0.174
			c-0.653,0-1.239,0.119-1.759,0.357c-0.519,0.237-0.958,0.567-1.319,0.989c-0.36,0.421-0.637,0.922-0.829,1.501
			c-0.192,0.581-0.289,1.208-0.289,1.887c0,0.757,0.105,1.429,0.316,2.015c0.211,0.586,0.502,1.081,0.875,1.484
			c0.372,0.403,0.816,0.708,1.333,0.916c0.516,0.208,1.082,0.312,1.699,0.312c0.367,0,0.738-0.044,1.113-0.133
			c0.375-0.089,0.726-0.222,1.049-0.398v-3.453h-2.748c-0.104,0-0.182-0.052-0.234-0.156c-0.052-0.104-0.077-0.265-0.077-0.485
			c0-0.116,0.006-0.214,0.018-0.297c0.013-0.083,0.032-0.15,0.06-0.202c0.028-0.052,0.06-0.09,0.097-0.115
			c0.037-0.024,0.082-0.036,0.137-0.036h3.764c0.067,0,0.134,0.011,0.202,0.036c0.067,0.025,0.128,0.062,0.183,0.11
			c0.055,0.049,0.098,0.116,0.128,0.201s0.046,0.183,0.046,0.293v4.516c0,0.158-0.028,0.295-0.083,0.412
			c-0.055,0.115-0.171,0.218-0.348,0.307c-0.177,0.089-0.406,0.184-0.687,0.288c-0.281,0.104-0.571,0.193-0.87,0.266
			c-0.299,0.072-0.602,0.128-0.907,0.165c-0.306,0.037-0.607,0.055-0.907,0.055c-0.916,0-1.734-0.142-2.455-0.426
			s-1.33-0.688-1.827-1.213c-0.498-0.525-0.877-1.154-1.14-1.887c-0.263-0.732-0.395-1.551-0.395-2.454
			c0-0.941,0.142-1.792,0.426-2.556c0.284-0.763,0.684-1.414,1.2-1.951c0.516-0.537,1.136-0.954,1.86-1.25
			c0.723-0.295,1.525-0.444,2.404-0.444c0.451,0,0.875,0.041,1.272,0.119c0.397,0.08,0.75,0.172,1.058,0.279
			c0.308,0.108,0.567,0.223,0.779,0.349c0.21,0.125,0.355,0.227,0.435,0.307c0.079,0.079,0.134,0.171,0.165,0.274
			C45.809,14.396,45.824,14.546,45.824,14.741z"/>
	</g>
	<g>
		<path fill="#272525" d="M62.64,24.743c0,0.049-0.013,0.091-0.038,0.128c-0.023,0.037-0.066,0.066-0.127,0.087
			c-0.061,0.021-0.142,0.04-0.243,0.055c-0.102,0.015-0.225,0.023-0.371,0.023c-0.16,0-0.287-0.008-0.385-0.023
			c-0.097-0.015-0.178-0.033-0.239-0.055c-0.061-0.021-0.104-0.051-0.126-0.087c-0.025-0.037-0.038-0.079-0.038-0.128v-5.256h-5.394
			v5.256c0,0.049-0.012,0.091-0.037,0.128s-0.067,0.066-0.128,0.087c-0.061,0.021-0.142,0.04-0.243,0.055s-0.228,0.023-0.38,0.023
			c-0.146,0-0.272-0.008-0.375-0.023c-0.104-0.015-0.186-0.033-0.247-0.055c-0.062-0.021-0.104-0.051-0.129-0.087
			c-0.024-0.037-0.036-0.079-0.036-0.128V13.368c0-0.05,0.012-0.091,0.036-0.128c0.025-0.037,0.067-0.066,0.129-0.087
			c0.061-0.021,0.143-0.039,0.247-0.055c0.104-0.015,0.229-0.022,0.375-0.022c0.152,0,0.279,0.007,0.38,0.022
			c0.101,0.016,0.182,0.033,0.243,0.055c0.061,0.021,0.104,0.051,0.128,0.087c0.024,0.037,0.037,0.079,0.037,0.128v4.744h5.394
			v-4.744c0-0.05,0.013-0.091,0.038-0.128c0.022-0.037,0.066-0.066,0.126-0.087c0.061-0.021,0.142-0.039,0.239-0.055
			c0.099-0.015,0.226-0.022,0.385-0.022c0.146,0,0.269,0.007,0.371,0.022c0.101,0.016,0.183,0.033,0.243,0.055
			c0.061,0.021,0.104,0.051,0.127,0.087c0.025,0.037,0.038,0.079,0.038,0.128V24.743z"/>
	</g>
	<g>
		<path fill="#272525" d="M86.318,21.656c0,0.556-0.103,1.05-0.307,1.484c-0.205,0.434-0.489,0.801-0.852,1.104
			c-0.363,0.302-0.791,0.529-1.282,0.682c-0.491,0.152-1.021,0.229-1.589,0.229c-0.397,0-0.765-0.033-1.103-0.1
			c-0.34-0.067-0.642-0.15-0.908-0.248c-0.265-0.098-0.487-0.199-0.667-0.303c-0.18-0.103-0.307-0.191-0.375-0.265
			c-0.071-0.074-0.123-0.167-0.157-0.279c-0.033-0.113-0.05-0.265-0.05-0.454c0-0.135,0.006-0.246,0.018-0.334
			c0.013-0.088,0.032-0.161,0.054-0.215c0.025-0.055,0.056-0.094,0.093-0.114c0.037-0.021,0.08-0.033,0.128-0.033
			c0.086,0,0.206,0.052,0.361,0.156c0.156,0.104,0.356,0.217,0.6,0.338c0.245,0.123,0.539,0.237,0.884,0.344
			s0.744,0.161,1.196,0.161c0.342,0,0.654-0.047,0.938-0.138s0.527-0.221,0.733-0.389c0.204-0.167,0.361-0.374,0.472-0.618
			c0.109-0.245,0.165-0.522,0.165-0.834c0-0.335-0.076-0.623-0.229-0.86c-0.153-0.238-0.355-0.448-0.606-0.627
			c-0.25-0.18-0.535-0.345-0.855-0.495c-0.322-0.15-0.649-0.303-0.985-0.458c-0.336-0.156-0.664-0.328-0.98-0.517
			c-0.317-0.19-0.601-0.412-0.852-0.67c-0.25-0.256-0.453-0.557-0.609-0.901c-0.155-0.345-0.233-0.758-0.233-1.242
			c0-0.495,0.09-0.935,0.27-1.323c0.18-0.388,0.43-0.712,0.751-0.976c0.321-0.261,0.703-0.462,1.145-0.6
			c0.442-0.137,0.921-0.205,1.433-0.205c0.264,0,0.527,0.022,0.792,0.068c0.265,0.045,0.516,0.106,0.752,0.184
			c0.233,0.076,0.444,0.161,0.626,0.256c0.183,0.094,0.304,0.171,0.363,0.228c0.057,0.059,0.095,0.104,0.114,0.139
			c0.018,0.033,0.033,0.076,0.045,0.128c0.013,0.052,0.021,0.114,0.028,0.188c0.005,0.074,0.008,0.167,0.008,0.284
			c0,0.109-0.004,0.207-0.013,0.293c-0.01,0.085-0.023,0.157-0.041,0.215c-0.019,0.057-0.046,0.101-0.079,0.128
			c-0.033,0.026-0.072,0.041-0.114,0.041c-0.068,0-0.172-0.042-0.317-0.128c-0.142-0.085-0.318-0.181-0.526-0.288
			c-0.207-0.108-0.453-0.206-0.737-0.294c-0.284-0.087-0.604-0.132-0.958-0.132c-0.33,0-0.618,0.044-0.861,0.132
			c-0.244,0.089-0.447,0.207-0.604,0.354c-0.16,0.146-0.279,0.32-0.357,0.521c-0.08,0.202-0.119,0.416-0.119,0.642
			c0,0.33,0.076,0.614,0.228,0.851c0.152,0.239,0.356,0.449,0.609,0.633c0.253,0.183,0.543,0.352,0.866,0.503
			c0.323,0.152,0.653,0.307,0.989,0.463c0.336,0.156,0.666,0.326,0.99,0.513c0.322,0.186,0.611,0.407,0.865,0.659
			c0.254,0.253,0.458,0.553,0.614,0.898C86.239,20.779,86.318,21.187,86.318,21.656z"/>
		<path fill="#272525" d="M101.793,23.305c0,0.098-0.004,0.184-0.009,0.258c-0.006,0.072-0.018,0.137-0.033,0.191
			c-0.015,0.056-0.036,0.104-0.059,0.147c-0.025,0.042-0.068,0.094-0.129,0.156c-0.061,0.061-0.189,0.153-0.384,0.279
			c-0.195,0.125-0.438,0.247-0.728,0.367c-0.291,0.119-0.623,0.219-0.998,0.302s-0.786,0.124-1.232,0.124
			c-0.769,0-1.464-0.129-2.084-0.385c-0.62-0.256-1.147-0.636-1.583-1.135c-0.437-0.501-0.774-1.12-1.008-1.855
			c-0.234-0.736-0.353-1.583-0.353-2.542c0-0.983,0.127-1.859,0.38-2.629c0.252-0.77,0.609-1.421,1.066-1.956
			c0.459-0.534,1.007-0.942,1.644-1.222c0.639-0.282,1.346-0.421,2.121-0.421c0.342,0,0.674,0.032,0.999,0.095
			c0.323,0.064,0.623,0.146,0.898,0.243c0.274,0.098,0.519,0.21,0.733,0.339c0.213,0.128,0.361,0.233,0.444,0.315
			s0.136,0.146,0.16,0.188c0.025,0.043,0.044,0.094,0.06,0.151c0.015,0.058,0.028,0.126,0.037,0.207
			c0.009,0.08,0.014,0.174,0.014,0.284c0,0.122-0.006,0.226-0.019,0.311c-0.013,0.086-0.03,0.157-0.056,0.215
			c-0.023,0.059-0.053,0.102-0.086,0.128c-0.034,0.028-0.076,0.042-0.124,0.042c-0.086,0-0.206-0.06-0.36-0.179
			c-0.152-0.119-0.35-0.25-0.593-0.394c-0.242-0.144-0.538-0.274-0.884-0.393c-0.346-0.12-0.762-0.179-1.246-0.179
			c-0.529,0-1.01,0.105-1.442,0.316c-0.433,0.21-0.803,0.521-1.11,0.93c-0.307,0.41-0.545,0.908-0.714,1.498
			c-0.168,0.589-0.252,1.263-0.252,2.02c0,0.751,0.081,1.415,0.244,1.992c0.162,0.577,0.396,1.059,0.7,1.447
			c0.305,0.387,0.677,0.681,1.119,0.878c0.441,0.199,0.942,0.298,1.501,0.298c0.472,0,0.885-0.059,1.238-0.174
			c0.353-0.117,0.654-0.246,0.903-0.39c0.249-0.145,0.452-0.273,0.611-0.389c0.16-0.117,0.287-0.175,0.378-0.175
			c0.043,0,0.08,0.01,0.111,0.028c0.031,0.018,0.055,0.053,0.074,0.105c0.018,0.052,0.032,0.124,0.041,0.215
			S101.793,23.166,101.793,23.305z"/>
	</g>
	<g>
		<path fill="#272525" d="M117.767,24.743c0,0.049-0.013,0.091-0.037,0.128s-0.067,0.066-0.128,0.087
			c-0.061,0.021-0.142,0.04-0.244,0.055c-0.1,0.015-0.223,0.023-0.37,0.023c-0.159,0-0.287-0.008-0.384-0.023
			s-0.178-0.033-0.238-0.055c-0.061-0.021-0.104-0.051-0.128-0.087c-0.025-0.037-0.037-0.079-0.037-0.128v-5.256h-5.395v5.256
			c0,0.049-0.012,0.091-0.037,0.128c-0.024,0.037-0.067,0.066-0.128,0.087c-0.061,0.021-0.142,0.04-0.242,0.055
			c-0.102,0.015-0.228,0.023-0.38,0.023c-0.147,0-0.271-0.008-0.375-0.023s-0.187-0.033-0.247-0.055
			c-0.062-0.021-0.104-0.051-0.128-0.087c-0.025-0.037-0.037-0.079-0.037-0.128V13.368c0-0.05,0.012-0.091,0.037-0.128
			c0.024-0.037,0.066-0.066,0.128-0.087c0.061-0.021,0.143-0.039,0.247-0.055c0.104-0.015,0.229-0.022,0.375-0.022
			c0.152,0,0.279,0.007,0.38,0.022c0.1,0.016,0.182,0.033,0.242,0.055c0.061,0.021,0.104,0.051,0.128,0.087
			c0.025,0.037,0.037,0.079,0.037,0.128v4.744h5.395v-4.744c0-0.05,0.011-0.091,0.037-0.128c0.024-0.037,0.067-0.066,0.128-0.087
			c0.061-0.021,0.141-0.039,0.238-0.055c0.098-0.015,0.226-0.022,0.384-0.022c0.147,0,0.27,0.007,0.37,0.022
			c0.102,0.016,0.183,0.033,0.244,0.055c0.061,0.021,0.104,0.051,0.128,0.087c0.024,0.037,0.037,0.079,0.037,0.128V24.743z"/>
	</g>
	<g>
		<path fill="#272525" d="M136.173,18.918c0,0.959-0.114,1.822-0.34,2.592c-0.226,0.769-0.563,1.424-1.012,1.964
			c-0.449,0.54-1.013,0.956-1.689,1.245c-0.677,0.291-1.469,0.435-2.372,0.435c-0.893,0-1.664-0.132-2.313-0.398
			c-0.65-0.265-1.188-0.652-1.613-1.159c-0.424-0.506-0.741-1.135-0.947-1.885c-0.207-0.752-0.311-1.616-0.311-2.592
			c0-0.935,0.112-1.783,0.339-2.546c0.226-0.763,0.564-1.413,1.016-1.947c0.452-0.534,1.017-0.946,1.694-1.236
			c0.678-0.29,1.468-0.435,2.373-0.435c0.874,0,1.633,0.132,2.282,0.393c0.646,0.264,1.186,0.646,1.615,1.15
			c0.431,0.503,0.751,1.126,0.961,1.868C136.067,17.109,136.173,17.96,136.173,18.918z M134.507,19.027
			c0-0.67-0.062-1.296-0.181-1.873c-0.118-0.577-0.316-1.077-0.594-1.501s-0.647-0.756-1.11-0.994
			c-0.464-0.237-1.037-0.356-1.72-0.356c-0.685,0-1.258,0.128-1.721,0.384c-0.463,0.256-0.839,0.598-1.13,1.026
			c-0.289,0.427-0.497,0.927-0.622,1.498c-0.125,0.571-0.188,1.17-0.188,1.799c0,0.696,0.058,1.337,0.174,1.924
			c0.115,0.586,0.311,1.091,0.584,1.516c0.275,0.425,0.643,0.754,1.104,0.989c0.46,0.235,1.037,0.353,1.733,0.353
			c0.688,0,1.268-0.128,1.738-0.384c0.47-0.256,0.848-0.604,1.134-1.04c0.287-0.437,0.491-0.942,0.612-1.516
			C134.444,20.277,134.507,19.669,134.507,19.027z"/>
		<path fill="#272525" d="M153.901,18.918c0,0.959-0.114,1.822-0.34,2.592c-0.226,0.769-0.563,1.424-1.013,1.964
			c-0.448,0.54-1.012,0.956-1.688,1.245c-0.679,0.291-1.469,0.435-2.373,0.435c-0.892,0-1.662-0.132-2.312-0.398
			c-0.652-0.265-1.189-0.652-1.613-1.159c-0.424-0.506-0.74-1.135-0.948-1.885c-0.207-0.752-0.311-1.616-0.311-2.592
			c0-0.935,0.112-1.783,0.338-2.546c0.227-0.763,0.566-1.413,1.018-1.947c0.451-0.534,1.017-0.946,1.694-1.236
			c0.677-0.29,1.468-0.435,2.371-0.435c0.874,0,1.634,0.132,2.281,0.393c0.648,0.264,1.186,0.646,1.617,1.15
			c0.431,0.503,0.75,1.126,0.961,1.868C153.795,17.109,153.901,17.96,153.901,18.918z M152.233,19.027
			c0-0.67-0.06-1.296-0.179-1.873c-0.119-0.577-0.317-1.077-0.594-1.501c-0.278-0.425-0.649-0.756-1.112-0.994
			c-0.463-0.237-1.035-0.356-1.719-0.356s-1.257,0.128-1.722,0.384c-0.463,0.256-0.839,0.598-1.128,1.026
			c-0.289,0.427-0.497,0.927-0.622,1.498c-0.126,0.571-0.188,1.17-0.188,1.799c0,0.696,0.058,1.337,0.173,1.924
			c0.116,0.586,0.312,1.091,0.586,1.516c0.273,0.425,0.642,0.754,1.104,0.989c0.459,0.235,1.037,0.353,1.731,0.353
			c0.69,0,1.269-0.128,1.739-0.384c0.469-0.256,0.848-0.604,1.135-1.04c0.286-0.437,0.489-0.942,0.611-1.516
			C152.171,20.277,152.233,19.669,152.233,19.027z"/>
		<path fill="#272525" d="M167.846,24.294c0,0.123-0.006,0.225-0.019,0.307s-0.031,0.153-0.06,0.21
			c-0.026,0.058-0.061,0.102-0.1,0.128c-0.041,0.028-0.088,0.042-0.143,0.042h-5.239c-0.14,0-0.272-0.047-0.398-0.142
			c-0.124-0.095-0.188-0.261-0.188-0.5V13.368c0-0.05,0.013-0.091,0.036-0.128c0.024-0.037,0.067-0.066,0.129-0.087
			c0.061-0.021,0.145-0.039,0.248-0.055c0.103-0.015,0.229-0.022,0.375-0.022c0.152,0,0.279,0.007,0.38,0.022
			c0.1,0.016,0.181,0.033,0.242,0.055c0.061,0.021,0.104,0.051,0.129,0.087c0.024,0.037,0.036,0.079,0.036,0.128v10.249h4.25
			c0.055,0,0.102,0.014,0.143,0.04c0.039,0.028,0.073,0.067,0.1,0.12c0.028,0.052,0.047,0.12,0.06,0.207
			C167.84,24.068,167.846,24.172,167.846,24.294z"/>
		<path fill="#272525" d="M189.876,24.294c0,0.123-0.006,0.225-0.019,0.307c-0.012,0.083-0.03,0.153-0.059,0.21
			c-0.027,0.058-0.061,0.102-0.102,0.128c-0.039,0.028-0.086,0.042-0.142,0.042h-5.238c-0.142,0-0.273-0.047-0.398-0.142
			c-0.126-0.095-0.188-0.261-0.188-0.5V13.368c0-0.05,0.011-0.091,0.036-0.128c0.024-0.037,0.066-0.066,0.128-0.087
			s0.144-0.039,0.248-0.055c0.104-0.015,0.228-0.022,0.375-0.022c0.152,0,0.279,0.007,0.381,0.022
			c0.1,0.016,0.181,0.033,0.242,0.055c0.061,0.021,0.104,0.051,0.128,0.087c0.025,0.037,0.036,0.079,0.036,0.128v10.249h4.25
			c0.056,0,0.103,0.014,0.142,0.04c0.041,0.028,0.074,0.067,0.102,0.12c0.028,0.052,0.047,0.12,0.059,0.207
			C189.87,24.068,189.876,24.172,189.876,24.294z"/>
		<path fill="#272525" d="M203.521,24.331c0,0.11-0.008,0.207-0.02,0.289s-0.034,0.151-0.064,0.205
			c-0.03,0.056-0.066,0.095-0.104,0.12c-0.04,0.024-0.085,0.037-0.134,0.037h-5.687c-0.142,0-0.273-0.047-0.398-0.142
			c-0.127-0.095-0.188-0.261-0.188-0.5V13.771c0-0.239,0.061-0.405,0.188-0.5c0.125-0.094,0.257-0.142,0.398-0.142h5.623
			c0.048,0,0.094,0.013,0.133,0.037c0.039,0.024,0.072,0.064,0.096,0.119c0.025,0.054,0.045,0.123,0.061,0.206
			c0.015,0.082,0.022,0.185,0.022,0.307c0,0.11-0.008,0.207-0.022,0.289c-0.016,0.083-0.035,0.15-0.061,0.202
			c-0.023,0.052-0.057,0.09-0.096,0.114s-0.085,0.037-0.133,0.037h-4.634v3.718h3.975c0.048,0,0.094,0.014,0.133,0.042
			c0.039,0.026,0.072,0.066,0.1,0.114c0.028,0.05,0.049,0.117,0.06,0.202c0.014,0.085,0.02,0.187,0.02,0.302
			c0,0.11-0.006,0.206-0.02,0.284c-0.011,0.08-0.031,0.144-0.06,0.193c-0.027,0.048-0.061,0.083-0.1,0.105
			c-0.039,0.021-0.085,0.031-0.133,0.031h-3.975v4.241h4.697c0.049,0,0.094,0.013,0.134,0.037c0.038,0.024,0.074,0.063,0.104,0.114
			c0.03,0.052,0.053,0.119,0.064,0.202S203.521,24.209,203.521,24.331z"/>
		<path fill="#272525" d="M220.079,24.422c0.05,0.134,0.075,0.243,0.079,0.326c0.002,0.083-0.021,0.145-0.069,0.188
			c-0.049,0.043-0.13,0.07-0.243,0.083c-0.112,0.012-0.264,0.018-0.454,0.018c-0.188,0-0.34-0.004-0.452-0.013
			c-0.113-0.01-0.199-0.025-0.257-0.047c-0.058-0.021-0.1-0.05-0.128-0.086c-0.027-0.037-0.053-0.083-0.078-0.138l-1.018-2.885
			h-4.927l-0.97,2.85c-0.02,0.055-0.043,0.102-0.073,0.141c-0.03,0.041-0.076,0.074-0.134,0.102s-0.141,0.047-0.247,0.06
			c-0.106,0.012-0.246,0.018-0.416,0.018c-0.178,0-0.322-0.008-0.437-0.023c-0.112-0.015-0.192-0.044-0.238-0.086
			c-0.045-0.043-0.065-0.105-0.063-0.188c0.003-0.083,0.028-0.191,0.079-0.326l3.975-11.008c0.023-0.067,0.056-0.122,0.096-0.165
			c0.04-0.043,0.097-0.076,0.174-0.101c0.076-0.024,0.174-0.041,0.293-0.05c0.119-0.01,0.271-0.014,0.454-0.014
			c0.195,0,0.356,0.004,0.484,0.014c0.13,0.009,0.232,0.025,0.313,0.05c0.078,0.025,0.139,0.06,0.183,0.105
			c0.043,0.047,0.075,0.103,0.101,0.17L220.079,24.422z M214.979,14.705h-0.01l-2.042,5.908h4.122L214.979,14.705z"/>
		<path fill="#272525" d="M235.289,24.743c0,0.049-0.01,0.091-0.028,0.128c-0.018,0.037-0.058,0.067-0.119,0.093
			c-0.061,0.024-0.146,0.042-0.256,0.054c-0.109,0.012-0.256,0.018-0.438,0.018c-0.16,0-0.289-0.006-0.391-0.018
			c-0.101-0.013-0.182-0.032-0.242-0.06c-0.063-0.028-0.108-0.066-0.143-0.114c-0.034-0.05-0.062-0.11-0.087-0.184l-1.09-2.794
			c-0.128-0.317-0.261-0.608-0.399-0.874c-0.137-0.266-0.299-0.495-0.489-0.688c-0.189-0.192-0.411-0.342-0.668-0.449
			s-0.564-0.16-0.925-0.16h-1.054v5.046c0,0.049-0.014,0.091-0.042,0.128c-0.026,0.037-0.069,0.066-0.127,0.087
			c-0.059,0.021-0.138,0.04-0.238,0.055c-0.102,0.015-0.229,0.023-0.381,0.023c-0.151,0-0.278-0.008-0.38-0.023
			s-0.182-0.033-0.242-0.055c-0.063-0.021-0.104-0.051-0.128-0.087c-0.025-0.037-0.037-0.079-0.037-0.128V13.771
			c0-0.239,0.063-0.405,0.188-0.5c0.126-0.094,0.258-0.142,0.398-0.142h2.519c0.299,0,0.549,0.008,0.747,0.023
			c0.197,0.015,0.376,0.032,0.535,0.051c0.459,0.08,0.862,0.204,1.215,0.375c0.35,0.171,0.644,0.388,0.883,0.65
			c0.238,0.263,0.417,0.563,0.536,0.902c0.118,0.338,0.179,0.712,0.179,1.122c0,0.397-0.054,0.752-0.161,1.066
			c-0.106,0.314-0.26,0.594-0.463,0.834c-0.2,0.241-0.441,0.45-0.723,0.626c-0.281,0.178-0.596,0.327-0.943,0.449
			c0.195,0.086,0.373,0.194,0.531,0.326c0.158,0.13,0.307,0.288,0.443,0.472c0.139,0.183,0.268,0.393,0.39,0.631
			c0.122,0.239,0.243,0.507,0.366,0.807l1.063,2.61c0.085,0.219,0.142,0.374,0.165,0.463
			C235.276,24.626,235.289,24.695,235.289,24.743z M232.916,16.418c0-0.464-0.104-0.856-0.311-1.177
			c-0.208-0.321-0.556-0.552-1.045-0.691c-0.152-0.043-0.324-0.073-0.518-0.093c-0.192-0.018-0.443-0.026-0.756-0.026h-1.327v3.993
			h1.538c0.416,0,0.773-0.051,1.076-0.151c0.304-0.101,0.555-0.242,0.756-0.422c0.202-0.18,0.35-0.392,0.444-0.636
			C232.869,16.971,232.916,16.705,232.916,16.418z"/>
		<path fill="#272525" d="M251.854,24.331c0,0.123-0.021,0.226-0.063,0.312c-0.04,0.085-0.094,0.156-0.159,0.211
			c-0.067,0.054-0.143,0.095-0.224,0.119c-0.082,0.024-0.165,0.037-0.246,0.037h-0.522c-0.163,0-0.307-0.018-0.43-0.051
			c-0.123-0.033-0.239-0.095-0.352-0.184c-0.108-0.088-0.221-0.208-0.331-0.362c-0.11-0.152-0.227-0.347-0.351-0.585l-3.617-6.742
			c-0.188-0.347-0.378-0.712-0.57-1.094c-0.193-0.382-0.37-0.752-0.536-1.112h-0.02c0.013,0.439,0.022,0.888,0.028,1.346
			c0.006,0.458,0.01,0.913,0.01,1.364v7.154c0,0.043-0.013,0.083-0.039,0.124c-0.026,0.04-0.07,0.07-0.131,0.091
			s-0.142,0.04-0.241,0.055s-0.228,0.023-0.383,0.023c-0.154,0-0.281-0.008-0.38-0.023c-0.102-0.015-0.181-0.033-0.237-0.055
			c-0.059-0.021-0.101-0.052-0.126-0.091c-0.025-0.041-0.038-0.081-0.038-0.124V13.808c0-0.245,0.068-0.418,0.207-0.522
			c0.138-0.104,0.29-0.156,0.454-0.156h0.774c0.183,0,0.336,0.015,0.459,0.046c0.123,0.03,0.233,0.081,0.331,0.151
			c0.098,0.071,0.191,0.168,0.283,0.294c0.091,0.125,0.188,0.282,0.289,0.472l2.778,5.202c0.171,0.317,0.336,0.628,0.496,0.93
			c0.159,0.302,0.312,0.6,0.46,0.893c0.147,0.293,0.293,0.582,0.438,0.866s0.289,0.569,0.43,0.856h0.009
			c-0.013-0.482-0.02-0.984-0.022-1.506s-0.005-1.025-0.005-1.507v-6.429c0-0.043,0.013-0.083,0.039-0.119
			c0.026-0.037,0.07-0.069,0.131-0.097s0.142-0.047,0.241-0.06s0.23-0.019,0.392-0.019c0.142,0,0.265,0.006,0.366,0.019
			c0.104,0.013,0.186,0.032,0.243,0.06s0.1,0.06,0.125,0.097c0.025,0.037,0.039,0.076,0.039,0.119V24.331z"/>
		<path fill="#272525" d="M261.907,24.743c0,0.049-0.012,0.091-0.036,0.128c-0.025,0.037-0.068,0.066-0.129,0.087
			s-0.143,0.04-0.242,0.055c-0.101,0.015-0.228,0.023-0.379,0.023c-0.147,0-0.273-0.008-0.376-0.023
			c-0.104-0.015-0.188-0.033-0.248-0.055c-0.062-0.021-0.104-0.051-0.129-0.087c-0.023-0.037-0.036-0.079-0.036-0.128V13.368
			c0-0.05,0.014-0.091,0.042-0.128c0.026-0.037,0.072-0.066,0.137-0.087s0.146-0.039,0.247-0.055
			c0.102-0.015,0.221-0.022,0.363-0.022c0.151,0,0.278,0.007,0.379,0.022c0.1,0.016,0.182,0.033,0.242,0.055
			s0.104,0.051,0.129,0.087c0.024,0.037,0.036,0.079,0.036,0.128V24.743z"/>
		<path fill="#272525" d="M279.344,24.331c0,0.123-0.021,0.226-0.063,0.312c-0.042,0.085-0.095,0.156-0.161,0.211
			c-0.065,0.054-0.141,0.095-0.223,0.119c-0.081,0.024-0.164,0.037-0.246,0.037h-0.521c-0.163,0-0.308-0.018-0.43-0.051
			c-0.124-0.033-0.241-0.095-0.352-0.184c-0.11-0.088-0.222-0.208-0.331-0.362c-0.111-0.152-0.229-0.347-0.353-0.585l-3.615-6.742
			c-0.188-0.347-0.379-0.712-0.572-1.094c-0.191-0.382-0.37-0.752-0.535-1.112h-0.019c0.012,0.439,0.021,0.888,0.027,1.346
			c0.007,0.458,0.01,0.913,0.01,1.364v7.154c0,0.043-0.013,0.083-0.038,0.124c-0.027,0.04-0.07,0.07-0.132,0.091
			s-0.142,0.04-0.241,0.055c-0.099,0.015-0.228,0.023-0.382,0.023s-0.283-0.008-0.382-0.023c-0.101-0.015-0.179-0.033-0.235-0.055
			c-0.059-0.021-0.102-0.052-0.127-0.091c-0.025-0.041-0.038-0.081-0.038-0.124V13.808c0-0.245,0.068-0.418,0.208-0.522
			c0.138-0.104,0.289-0.156,0.454-0.156h0.774c0.183,0,0.336,0.015,0.458,0.046c0.124,0.03,0.233,0.081,0.332,0.151
			c0.097,0.071,0.191,0.168,0.283,0.294c0.091,0.125,0.187,0.282,0.287,0.472l2.78,5.202c0.17,0.317,0.336,0.628,0.494,0.93
			c0.16,0.302,0.313,0.6,0.462,0.893c0.147,0.293,0.293,0.582,0.438,0.866s0.288,0.569,0.43,0.856h0.008
			c-0.012-0.482-0.02-0.984-0.022-1.506s-0.004-1.025-0.004-1.507v-6.429c0-0.043,0.013-0.083,0.039-0.119
			c0.025-0.037,0.068-0.069,0.129-0.097c0.062-0.028,0.143-0.047,0.242-0.06c0.101-0.013,0.229-0.019,0.393-0.019
			c0.142,0,0.264,0.006,0.366,0.019s0.184,0.032,0.242,0.06s0.099,0.06,0.126,0.097c0.024,0.037,0.039,0.076,0.039,0.119V24.331z"/>
		<path fill="#272525" d="M296.723,14.741c0,0.117-0.006,0.22-0.019,0.307c-0.012,0.089-0.03,0.162-0.055,0.221
			c-0.024,0.057-0.055,0.099-0.091,0.123c-0.037,0.024-0.078,0.037-0.119,0.037c-0.072,0-0.195-0.059-0.367-0.174
			c-0.17-0.117-0.399-0.245-0.688-0.385c-0.286-0.14-0.629-0.268-1.029-0.384c-0.4-0.116-0.875-0.174-1.424-0.174
			c-0.653,0-1.239,0.119-1.759,0.357c-0.519,0.237-0.959,0.567-1.319,0.989c-0.36,0.421-0.637,0.922-0.829,1.501
			c-0.191,0.581-0.288,1.208-0.288,1.887c0,0.757,0.105,1.429,0.316,2.015c0.21,0.586,0.502,1.081,0.875,1.484
			c0.372,0.403,0.816,0.708,1.332,0.916c0.517,0.208,1.082,0.312,1.698,0.312c0.368,0,0.738-0.044,1.113-0.133
			c0.376-0.089,0.726-0.222,1.049-0.398v-3.453h-2.748c-0.104,0-0.182-0.052-0.233-0.156s-0.077-0.265-0.077-0.485
			c0-0.116,0.006-0.214,0.018-0.297c0.013-0.083,0.032-0.15,0.06-0.202c0.028-0.052,0.06-0.09,0.097-0.115
			c0.036-0.024,0.082-0.036,0.137-0.036h3.764c0.068,0,0.135,0.011,0.203,0.036c0.065,0.025,0.128,0.062,0.183,0.11
			c0.056,0.049,0.098,0.116,0.128,0.201s0.047,0.183,0.047,0.293v4.516c0,0.158-0.027,0.295-0.084,0.412
			c-0.054,0.115-0.17,0.218-0.347,0.307c-0.178,0.089-0.406,0.184-0.688,0.288s-0.57,0.193-0.87,0.266
			c-0.299,0.072-0.601,0.128-0.906,0.165s-0.607,0.055-0.907,0.055c-0.915,0-1.734-0.142-2.455-0.426s-1.329-0.688-1.826-1.213
			c-0.498-0.525-0.877-1.154-1.141-1.887c-0.263-0.732-0.394-1.551-0.394-2.454c0-0.941,0.142-1.792,0.426-2.556
			c0.284-0.763,0.684-1.414,1.2-1.951c0.515-0.537,1.136-0.954,1.858-1.25c0.724-0.295,1.524-0.444,2.404-0.444
			c0.452,0,0.875,0.041,1.273,0.119c0.396,0.08,0.748,0.172,1.058,0.279c0.309,0.108,0.568,0.223,0.779,0.349
			c0.21,0.125,0.354,0.227,0.435,0.307c0.08,0.079,0.133,0.171,0.165,0.274C296.708,14.396,296.723,14.546,296.723,14.741z"/>
	</g>
	<g>
		<path fill="#272525" d="M320.296,21.656c0,0.556-0.104,1.05-0.307,1.484c-0.205,0.434-0.489,0.801-0.853,1.104
			c-0.363,0.302-0.791,0.529-1.283,0.682c-0.49,0.152-1.02,0.229-1.588,0.229c-0.397,0-0.766-0.033-1.104-0.1
			c-0.338-0.067-0.64-0.15-0.906-0.248s-0.488-0.199-0.668-0.303c-0.181-0.103-0.306-0.191-0.376-0.265
			c-0.069-0.074-0.123-0.167-0.156-0.279c-0.032-0.113-0.05-0.265-0.05-0.454c0-0.135,0.006-0.246,0.018-0.334
			c0.013-0.088,0.031-0.161,0.056-0.215c0.025-0.055,0.056-0.094,0.091-0.114c0.037-0.021,0.08-0.033,0.13-0.033
			c0.085,0,0.205,0.052,0.36,0.156c0.157,0.104,0.356,0.217,0.601,0.338c0.244,0.123,0.538,0.237,0.883,0.344
			s0.744,0.161,1.197,0.161c0.341,0,0.654-0.047,0.938-0.138s0.527-0.221,0.732-0.389c0.203-0.167,0.36-0.374,0.472-0.618
			c0.109-0.245,0.165-0.522,0.165-0.834c0-0.335-0.077-0.623-0.229-0.86c-0.153-0.238-0.354-0.448-0.604-0.627
			c-0.251-0.18-0.535-0.345-0.856-0.495c-0.32-0.15-0.649-0.303-0.985-0.458c-0.335-0.156-0.662-0.328-0.979-0.517
			c-0.318-0.19-0.602-0.412-0.853-0.67c-0.251-0.256-0.454-0.557-0.608-0.901c-0.156-0.345-0.233-0.758-0.233-1.242
			c0-0.495,0.089-0.935,0.269-1.323c0.181-0.388,0.432-0.712,0.751-0.976c0.322-0.261,0.702-0.462,1.146-0.6
			c0.441-0.137,0.921-0.205,1.433-0.205c0.263,0,0.526,0.022,0.791,0.068c0.267,0.045,0.518,0.106,0.753,0.184
			c0.234,0.076,0.443,0.161,0.627,0.256c0.183,0.094,0.304,0.171,0.361,0.228c0.058,0.059,0.096,0.104,0.114,0.139
			c0.02,0.033,0.034,0.076,0.046,0.128c0.013,0.052,0.021,0.114,0.028,0.188c0.006,0.074,0.009,0.167,0.009,0.284
			c0,0.109-0.006,0.207-0.013,0.293c-0.011,0.085-0.024,0.157-0.042,0.215c-0.02,0.057-0.045,0.101-0.077,0.128
			c-0.034,0.026-0.074,0.041-0.116,0.041c-0.066,0-0.172-0.042-0.315-0.128c-0.144-0.085-0.319-0.181-0.527-0.288
			c-0.207-0.108-0.453-0.206-0.737-0.294c-0.282-0.087-0.602-0.132-0.957-0.132c-0.33,0-0.616,0.044-0.859,0.132
			c-0.245,0.089-0.447,0.207-0.605,0.354c-0.158,0.146-0.277,0.32-0.357,0.521c-0.08,0.202-0.118,0.416-0.118,0.642
			c0,0.33,0.076,0.614,0.229,0.851c0.152,0.239,0.355,0.449,0.608,0.633c0.254,0.183,0.543,0.352,0.865,0.503
			c0.324,0.152,0.654,0.307,0.989,0.463c0.337,0.156,0.667,0.326,0.99,0.513c0.323,0.186,0.612,0.407,0.866,0.659
			c0.252,0.253,0.456,0.553,0.612,0.898C320.218,20.779,320.296,21.187,320.296,21.656z"/>
	</g>
	<g>
		<path fill="#272525" d="M336.778,20.604c0,0.72-0.105,1.363-0.316,1.927c-0.21,0.564-0.512,1.042-0.902,1.433
			c-0.391,0.392-0.866,0.688-1.429,0.889c-0.562,0.202-1.199,0.302-1.914,0.302c-0.653,0-1.248-0.094-1.786-0.284
			c-0.537-0.189-0.998-0.468-1.382-0.838c-0.386-0.369-0.683-0.832-0.889-1.387c-0.208-0.556-0.312-1.196-0.312-1.922v-7.355
			c0-0.05,0.012-0.091,0.036-0.128c0.025-0.037,0.067-0.066,0.129-0.087s0.14-0.039,0.237-0.055
			c0.098-0.015,0.226-0.022,0.385-0.022c0.146,0,0.271,0.007,0.375,0.022c0.104,0.016,0.186,0.033,0.243,0.055
			c0.059,0.021,0.1,0.051,0.125,0.087c0.022,0.037,0.035,0.079,0.035,0.128v7.162c0,0.549,0.068,1.028,0.201,1.438
			c0.135,0.409,0.329,0.75,0.582,1.021c0.254,0.271,0.559,0.477,0.916,0.614c0.357,0.137,0.758,0.207,1.205,0.207
			c0.457,0,0.864-0.067,1.222-0.202c0.358-0.134,0.66-0.336,0.907-0.605c0.247-0.269,0.438-0.601,0.568-0.998
			c0.13-0.396,0.196-0.861,0.196-1.392v-7.245c0-0.05,0.013-0.091,0.037-0.128c0.023-0.037,0.066-0.066,0.128-0.087
			c0.061-0.021,0.142-0.039,0.243-0.055c0.101-0.015,0.227-0.022,0.381-0.022c0.146,0,0.269,0.007,0.37,0.022
			c0.102,0.016,0.18,0.033,0.238,0.055s0.1,0.051,0.127,0.087c0.027,0.037,0.042,0.079,0.042,0.128V20.604z"/>
		<path fill="#272525" d="M346.804,24.743c0,0.049-0.012,0.091-0.037,0.128c-0.023,0.037-0.067,0.066-0.128,0.087
			s-0.142,0.04-0.242,0.055c-0.102,0.015-0.229,0.023-0.38,0.023c-0.147,0-0.271-0.008-0.376-0.023
			c-0.104-0.015-0.187-0.033-0.247-0.055c-0.063-0.021-0.104-0.051-0.128-0.087c-0.025-0.037-0.037-0.079-0.037-0.128V13.368
			c0-0.05,0.014-0.091,0.042-0.128c0.026-0.037,0.072-0.066,0.137-0.087c0.063-0.021,0.146-0.039,0.246-0.055
			c0.102-0.015,0.222-0.022,0.363-0.022c0.151,0,0.278,0.007,0.38,0.022c0.101,0.016,0.182,0.033,0.242,0.055
			s0.104,0.051,0.128,0.087c0.025,0.037,0.037,0.079,0.037,0.128V24.743z"/>
		<path fill="#272525" d="M362.71,13.808c0,0.115-0.007,0.217-0.02,0.302c-0.011,0.085-0.031,0.155-0.06,0.206
			c-0.027,0.052-0.061,0.091-0.1,0.115c-0.04,0.024-0.085,0.037-0.134,0.037h-3.334v10.276c0,0.049-0.011,0.091-0.036,0.128
			c-0.024,0.037-0.067,0.066-0.128,0.087c-0.062,0.021-0.143,0.04-0.242,0.055c-0.102,0.015-0.229,0.023-0.381,0.023
			c-0.147,0-0.271-0.008-0.375-0.023c-0.104-0.015-0.187-0.033-0.248-0.055s-0.104-0.051-0.128-0.087
			c-0.025-0.037-0.036-0.079-0.036-0.128V14.467h-3.334c-0.049,0-0.094-0.013-0.134-0.037c-0.039-0.024-0.072-0.063-0.095-0.115
			c-0.025-0.051-0.046-0.121-0.061-0.206c-0.016-0.085-0.023-0.187-0.023-0.302c0-0.117,0.008-0.218,0.023-0.307
			c0.015-0.089,0.035-0.161,0.061-0.215c0.022-0.055,0.056-0.095,0.095-0.119c0.04-0.024,0.085-0.037,0.134-0.037h8.242
			c0.049,0,0.094,0.013,0.134,0.037c0.039,0.024,0.072,0.064,0.1,0.119c0.028,0.054,0.049,0.126,0.06,0.215
			C362.703,13.59,362.71,13.691,362.71,13.808z"/>
		<path fill="#272525" d="M376.324,24.331c0,0.11-0.005,0.207-0.018,0.289s-0.033,0.151-0.063,0.205
			c-0.03,0.056-0.066,0.095-0.106,0.12c-0.039,0.024-0.084,0.037-0.132,0.037h-5.688c-0.14,0-0.273-0.047-0.398-0.142
			s-0.188-0.261-0.188-0.5V13.771c0-0.239,0.063-0.405,0.188-0.5c0.125-0.094,0.259-0.142,0.398-0.142h5.624
			c0.049,0,0.092,0.013,0.133,0.037c0.039,0.024,0.071,0.064,0.097,0.119c0.023,0.054,0.043,0.123,0.058,0.206
			c0.016,0.082,0.023,0.185,0.023,0.307c0,0.11-0.008,0.207-0.023,0.289c-0.015,0.083-0.034,0.15-0.058,0.202
			c-0.025,0.052-0.058,0.09-0.097,0.114c-0.041,0.024-0.084,0.037-0.133,0.037h-4.636v3.718h3.976c0.05,0,0.093,0.014,0.134,0.042
			c0.039,0.026,0.073,0.066,0.1,0.114c0.028,0.05,0.047,0.117,0.06,0.202s0.018,0.187,0.018,0.302c0,0.11-0.005,0.206-0.018,0.284
			c-0.013,0.08-0.031,0.144-0.06,0.193c-0.026,0.048-0.061,0.083-0.1,0.105c-0.041,0.021-0.084,0.031-0.134,0.031h-3.976v4.241h4.7
			c0.048,0,0.093,0.013,0.132,0.037c0.04,0.024,0.076,0.063,0.106,0.114c0.03,0.052,0.051,0.119,0.063,0.202
			S376.324,24.209,376.324,24.331z"/>
	</g>
</g>
</svg>
